<?xml version="1.0" standalone="no"?>
<!DOCTYPE svg PUBLIC "-//W3C//DTD SVG 20010904//EN"
 "http://www.w3.org/TR/2001/REC-SVG-20010904/DTD/svg10.dtd">
<svg version="1.0" xmlns="http://www.w3.org/2000/svg"
 width="834.000000pt" height="621.000000pt" viewBox="0 0 834.000000 621.000000"
 preserveAspectRatio="xMidYMid meet">

<g transform="translate(0.000000,621.000000) scale(0.100000,-0.100000)"
fill="#ecc901" stroke="none">
<path d="M980 5440 c-171 -5 -188 -7 -222 -28 -43 -27 -82 -70 -107 -121 -17
-34 -19 -108 -25 -1416 -6 -1397 1 -2124 23 -2180 17 -42 76 -101 137 -136
l51 -29 2521 0 c2289 0 2520 1 2526 16 3 9 6 28 6 44 0 87 56 302 103 395 39
78 110 177 183 254 41 43 74 82 74 85 0 3 -103 6 -229 6 l-229 0 -6 23 c-3 12
-6 109 -6 215 l0 192 -419 0 -419 0 -7 93 c-4 51 -5 153 -3 227 5 161 -36 58
353 885 163 347 311 663 328 703 l31 72 333 0 333 0 0 -765 0 -765 100 0 100
0 0 -225 0 -225 -105 0 -105 0 1 -172 c1 -95 4 -183 7 -195 7 -21 9 -21 80 23
165 100 277 129 507 129 144 0 182 -3 251 -22 44 -12 87 -25 96 -28 13 -5 16
7 22 72 9 102 9 2432 0 2583 -5 95 -11 123 -31 161 -24 46 -91 104 -146 127
-21 9 -713 12 -2975 10 -1621 -1 -3030 -5 -3132 -8z m3275 -703 c206 -67 351
-227 419 -459 57 -196 81 -549 66 -937 -11 -253 -28 -405 -60 -531 -65 -254
-222 -434 -434 -497 -124 -37 -417 -33 -536 7 -94 32 -146 65 -231 150 -142
141 -201 315 -230 676 -15 194 -6 747 15 898 60 423 205 624 507 706 63 17 98
20 239 16 144 -3 175 -7 245 -29z m-1425 -769 l0 -771 100 7 100 6 0 -177 c0
-98 -3 -202 -6 -230 l-7 -53 -93 0 -94 0 0 -210 0 -210 -237 0 c-131 0 -248
-3 -260 -6 l-23 -6 0 214 0 215 -412 6 c-227 3 -421 9 -430 12 -16 7 -18 27
-18 220 l0 213 301 629 c166 345 330 689 364 763 l63 135 64 6 c34 3 181 6
326 7 l262 2 0 -772z"/>
<path d="M3895 4307 c-19 -19 -38 -52 -45 -76 -8 -31 -12 -240 -13 -705 -2
-719 -2 -723 53 -778 26 -26 34 -28 103 -28 73 0 76 1 106 35 17 20 34 48 38
63 5 15 8 340 8 722 0 640 -1 698 -17 727 -31 56 -63 73 -135 73 -60 0 -67 -2
-98 -33z"/>
<path d="M2255 3993 c-85 -193 -325 -764 -325 -772 0 -14 71 -21 228 -21 l152
0 0 450 c0 248 -2 450 -4 450 -2 0 -25 -48 -51 -107z"/>
<path d="M5749 4047 c-15 -34 -99 -229 -187 -434 -88 -204 -163 -381 -167
-392 -6 -21 -4 -21 194 -21 l201 0 -1 228 c-1 125 -4 329 -8 454 l-6 227 -26
-62z"/>
<path d="M6743 2215 c-241 -55 -449 -267 -507 -515 -33 -140 -14 -316 48 -447
42 -88 74 -133 140 -197 138 -132 292 -184 511 -174 166 9 285 66 425 207 126
126 183 272 183 461 -1 306 -173 550 -460 651 -76 27 -252 34 -340 14z"/>
<path d="M7514 776 l-67 -65 61 -68 c33 -37 159 -166 280 -286 203 -203 222
-219 261 -224 36 -5 46 -2 71 22 38 37 46 74 24 122 -17 37 -535 563 -554 563
-5 0 -39 -29 -76 -64z"/>
</g>
</svg>
