<?xml version="1.0" standalone="no"?>
<!DOCTYPE svg PUBLIC "-//W3C//DTD SVG 20010904//EN"
 "http://www.w3.org/TR/2001/REC-SVG-20010904/DTD/svg10.dtd">
<svg version="1.0" xmlns="http://www.w3.org/2000/svg"
 width="528.000000pt" height="208.000000pt" viewBox="0 0 528.000000 208.000000"
 preserveAspectRatio="xMidYMid meet">

<g transform="translate(0.000000,208.000000) scale(0.100000,-0.100000)"
fill="#000000" stroke="none">
<path d="M180 995 l0 -875 2475 0 2475 0 0 875 0 875 -2475 0 -2475 0 0 -875z
m3534 766 c48 -12 90 -51 105 -100 7 -24 11 -123 11 -263 0 -212 -1 -226 -22
-268 -29 -56 -73 -80 -148 -80 -72 0 -118 24 -144 75 -19 36 -21 61 -24 258
-4 291 9 338 105 373 45 16 65 17 117 5z m-1979 -33 c3 -18 21 -130 41 -247
19 -118 36 -216 38 -218 1 -2 17 102 35 229 18 128 35 241 37 251 5 14 17 17
80 17 l74 0 0 -355 0 -355 -50 0 -50 0 -1 258 -1 257 -38 -255 c-21 -140 -39
-256 -39 -258 -1 -2 -25 -2 -53 0 l-53 3 -41 250 -42 250 -1 -252 -1 -253 -45
0 -45 0 0 355 0 355 75 0 74 0 6 -32z m579 -126 c22 -84 42 -149 46 -145 4 4
24 74 45 156 l38 147 52 0 52 0 -69 -231 -68 -231 0 -124 0 -124 -55 0 -55 0
0 116 c0 123 0 125 -136 577 -5 16 0 18 52 15 l58 -3 40 -153z m730 131 c3
-16 19 -118 36 -228 17 -110 34 -208 38 -218 4 -11 21 73 40 210 19 125 36
236 38 246 5 14 17 17 80 17 l74 0 0 -355 0 -355 -50 0 -50 0 -2 258 -3 257
-34 -230 c-18 -126 -36 -243 -38 -258 -5 -27 -8 -28 -57 -25 l-51 3 -41 250
-42 250 -1 -252 -1 -253 -45 0 -45 0 0 355 0 355 74 0 c73 0 74 0 80 -27z
m1010 10 c2 -10 21 -136 42 -281 21 -144 41 -259 44 -255 4 5 24 131 45 281
l38 272 49 0 c43 0 48 -2 48 -22 -1 -13 -24 -171 -53 -353 l-52 -330 -82 -3
c-46 -2 -83 -1 -83 1 0 4 -98 632 -105 675 l-6 32 55 0 c43 0 56 -4 60 -17z
m496 -338 l0 -355 -50 0 -50 0 0 355 0 355 50 0 50 0 0 -355z m460 305 l0 -50
-95 0 -95 0 0 -100 0 -100 75 0 75 0 0 -50 0 -50 -75 0 -75 0 0 -105 0 -105
95 0 95 0 0 -50 0 -50 -150 0 -150 0 0 355 0 355 150 0 150 0 0 -50z m-4600
-120 l0 -50 -50 0 -50 0 0 50 0 50 50 0 50 0 0 -50z m750 -150 l0 -200 -350 0
-350 0 0 200 0 200 350 0 350 0 0 -200z m160 150 l0 -50 -50 0 -50 0 0 50 0
50 50 0 50 0 0 -50z m-910 -150 l0 -50 -50 0 -50 0 0 50 0 50 50 0 50 0 0 -50z
m910 0 l0 -50 -50 0 -50 0 0 50 0 50 50 0 50 0 0 -50z m-910 -150 l0 -50 -50
0 -50 0 0 50 0 50 50 0 50 0 0 -50z m908 -2 l3 -48 -50 0 -51 0 0 51 0 50 48
-3 47 -3 3 -47z m-908 -148 l0 -50 -50 0 -50 0 0 50 0 50 50 0 50 0 0 -50z
m750 -155 l0 -205 -350 0 -350 0 0 205 0 205 350 0 350 0 0 -205z m158 153 l3
-48 -50 0 -51 0 0 51 0 50 48 -3 47 -3 3 -47z m-908 -153 l0 -45 -50 0 -50 0
0 45 0 45 50 0 50 0 0 -45z m910 0 l0 -45 -50 0 -50 0 0 45 0 45 50 0 50 0 0
-45z m3184 -86 c37 -17 66 -68 73 -128 l6 -51 -52 0 c-49 0 -51 1 -51 28 0 41
-26 72 -60 72 -33 0 -50 -23 -50 -69 0 -51 17 -79 98 -159 96 -95 118 -142
109 -234 -9 -104 -65 -152 -170 -145 -94 6 -147 63 -147 160 l0 47 50 0 50 0
0 -36 c0 -53 15 -74 53 -74 43 0 57 15 57 62 0 53 -18 82 -95 158 -109 106
-141 207 -96 307 34 74 136 102 225 62z m-2675 -7 c19 -9 44 -30 55 -45 20
-26 21 -44 24 -260 4 -255 -1 -287 -48 -332 -31 -29 -33 -30 -156 -33 l-124
-4 0 346 0 346 108 0 c82 0 115 -4 141 -18z m461 13 c0 -9 100 -640 105 -662
5 -22 2 -23 -49 -23 l-55 0 -6 38 c-14 88 -9 82 -81 82 -71 0 -69 2 -79 -72
l-6 -48 -50 0 c-27 0 -49 2 -49 4 0 7 100 632 106 659 6 27 6 27 85 27 43 0
79 -2 79 -5z m490 -45 l0 -50 -55 0 -55 0 0 -295 0 -295 -55 0 -55 0 0 295 0
295 -55 0 -55 0 0 50 0 50 165 0 165 0 0 -50z m377 -280 c29 -179 52 -333 53
-342 0 -15 -9 -18 -54 -18 l-53 0 -7 60 -7 60 -68 0 -69 0 -8 -57 -9 -58 -47
-3 c-34 -2 -48 1 -48 10 0 7 23 163 52 346 l53 333 80 -3 80 -3 52 -325z m422
312 c51 -25 72 -60 78 -130 7 -71 -16 -145 -48 -163 -18 -9 -18 -11 10 -35 37
-30 51 -77 51 -164 0 -78 -21 -125 -69 -157 -31 -21 -46 -23 -152 -23 l-119 0
0 345 0 345 108 0 c82 0 115 -4 141 -18z m518 -307 c28 -176 52 -330 52 -342
1 -21 -3 -23 -53 -23 l-53 0 -7 60 -7 60 -68 0 -69 0 -8 -57 -9 -58 -47 -3
c-34 -2 -48 1 -48 10 0 7 23 163 52 346 l53 333 80 -3 80 -3 52 -320z m913
275 l0 -50 -95 0 -95 0 0 -95 0 -95 75 0 75 0 0 -50 0 -50 -75 0 -75 0 0 -105
0 -105 95 0 95 0 0 -45 0 -45 -150 0 -150 0 0 345 0 345 150 0 150 0 0 -50z
m-4600 -30 l0 -50 -50 0 -50 0 0 50 0 50 50 0 50 0 0 -50z m908 3 l-3 -48 -47
-3 -48 -3 0 50 0 51 51 0 50 0 -3 -47z m-908 -153 l0 -50 -50 0 -50 0 0 50 0
50 50 0 50 0 0 -50z m750 -150 l0 -200 -350 0 -350 0 0 200 0 200 350 0 350 0
0 -200z m158 153 l-3 -48 -47 -3 -48 -3 0 50 0 51 51 0 50 0 -3 -47z m-908
-153 l0 -50 -50 0 -50 0 0 50 0 50 50 0 50 0 0 -50z m910 0 l0 -50 -50 0 -50
0 0 50 0 50 50 0 50 0 0 -50z m-910 -150 l0 -50 -50 0 -50 0 0 50 0 50 50 0
50 0 0 -50z m910 0 l0 -50 -50 0 -50 0 0 50 0 50 50 0 50 0 0 -50z"/>
<path d="M3638 1663 c-31 -8 -40 -75 -36 -283 3 -215 7 -230 59 -230 57 0 59
10 59 254 0 163 -3 226 -12 238 -15 18 -45 27 -70 21z"/>
<path d="M1682 563 l3 -248 33 -3 c19 -2 44 4 58 13 l24 15 0 216 c0 129 -4
223 -10 235 -8 15 -22 19 -61 19 l-49 0 2 -247z"/>
<path d="M2201 775 c-37 -242 -48 -331 -45 -337 6 -9 88 -11 95 -3 3 2 -5 73
-18 157 -25 171 -30 198 -32 183z"/>
<path d="M2992 612 c-12 -86 -22 -163 -22 -169 0 -9 17 -13 51 -13 l52 0 -6
38 c-3 20 -14 93 -23 162 -9 69 -20 128 -23 132 -4 4 -17 -63 -29 -150z"/>
<path d="M3440 720 l0 -90 38 0 c54 0 72 23 72 92 0 66 -19 88 -73 88 l-37 0
0 -90z"/>
<path d="M3442 423 l3 -108 33 -3 c19 -2 44 4 58 13 22 14 24 22 24 90 0 91
-17 115 -80 115 l-41 0 3 -107z"/>
<path d="M3932 607 c-12 -89 -22 -165 -22 -169 0 -5 23 -8 51 -8 l52 0 -6 38
c-3 20 -14 93 -23 162 -9 69 -20 128 -23 132 -4 5 -17 -65 -29 -155z"/>
</g>
</svg>
